<svg width="20" height="21" viewBox="0 0 20 21" fill="none" xmlns="http://www.w3.org/2000/svg">
<path d="M19.8055 8.26454H19V8.22189H10V12.3328H15.6515C14.827 14.7259 12.6115 16.4438 10 16.4438C6.6865 16.4438 4 13.6828 4 10.2774C4 6.87196 6.6865 4.11094 10 4.11094C11.5295 4.11094 12.921 4.70395 13.9805 5.67259L16.809 2.76564C15.023 1.05497 12.634 0 10 0C4.4775 0 0 4.60169 0 10.2774C0 15.953 4.4775 20.5547 10 20.5547C15.5225 20.5547 20 15.953 20 10.2774C20 9.58826 19.931 8.91561 19.8055 8.26454Z" fill="#FFC107"/>
<path d="M1.15308 5.49376L4.43858 7.97009C5.32758 5.70805 7.48058 4.11094 10.0001 4.11094C11.5296 4.11094 12.9211 4.70395 13.9806 5.67259L16.8091 2.76564C15.0231 1.05497 12.6341 0 10.0001 0C6.15908 0 2.82808 2.22865 1.15308 5.49376Z" fill="#FF3D00"/>
<path d="M9.99967 20.5545C12.5827 20.5545 14.9297 19.5386 16.7042 17.8865L13.6092 15.1948C12.6052 15.9764 11.3572 16.4435 9.99967 16.4435C7.39867 16.4435 5.19017 14.739 4.35817 12.3604L1.09717 14.9425C2.75217 18.2709 6.11317 20.5545 9.99967 20.5545Z" fill="#4CAF50"/>
<path d="M19.8055 8.26433H19V8.22168H10V12.3326H15.6515C15.2555 13.4821 14.536 14.4734 13.608 15.1954C13.6085 15.1949 13.609 15.1949 13.6095 15.1944L16.7045 17.886C16.4855 18.0905 20 15.4158 20 10.2772C20 9.58805 19.931 8.9154 19.8055 8.26433Z" fill="#1976D2"/>
</svg>
