<svg width="82" height="25" viewBox="0 0 82 25" fill="none" xmlns="http://www.w3.org/2000/svg">
<path d="M13.8804 1.19688C12.8526 0.399604 11.5114 0 9.85677 0H3.4511C2.94387 0 2.66364 0.28624 2.6104 0.858169L0.00816798 19.2895C-0.0188762 19.4706 0.0212616 19.6361 0.128215 19.7866C0.234556 19.9374 0.368308 20.0124 0.528493 20.0124H3.57115C4.10481 20.0124 4.39813 19.7269 4.45198 19.1542L5.1725 14.1853C5.19881 13.9445 5.29267 13.7487 5.45286 13.5979C5.61292 13.4474 5.81312 13.3489 6.05333 13.3038C6.29355 13.259 6.52006 13.2365 6.73397 13.2365C6.94726 13.2365 7.20069 13.2517 7.49475 13.2817C7.78808 13.3118 7.97506 13.3264 8.05521 13.3264C10.3504 13.3264 12.152 12.5967 13.46 11.1356C14.7674 9.67515 15.4219 7.65007 15.4219 5.05954C15.4219 3.28286 14.9077 1.9954 13.8804 1.19688ZM10.5775 6.73114C10.4437 7.78539 10.0971 8.47772 9.53665 8.80911C8.97606 9.14092 8.17538 9.30593 7.13461 9.30593L5.81336 9.35108L6.49412 4.5173C6.54723 4.18632 6.72063 4.02062 7.01444 4.02062H7.77535C8.84243 4.02062 9.61692 4.19419 10.0974 4.53994C10.5775 4.88653 10.7377 5.61711 10.5775 6.73114Z" fill="#003087"/>
<path d="M81.4795 0H78.5171C78.2228 0 78.0495 0.165697 77.9966 0.49709L75.3941 19.2897L75.354 19.38C75.354 19.5313 75.4075 19.6737 75.5144 19.8093C75.6207 19.9446 75.7546 20.0124 75.9146 20.0124H78.5572C79.0636 20.0124 79.3439 19.7269 79.398 19.1542L82.0003 0.677284V0.632408C82.0001 0.210849 81.8261 0 81.4795 0Z" fill="#009CDE"/>
<path d="M45.6886 7.27303C45.6886 7.1228 45.6349 6.97947 45.5288 6.84416C45.4218 6.7087 45.3015 6.64062 45.1684 6.64062H42.0857C41.7915 6.64062 41.5514 6.79196 41.365 7.09229L37.1213 14.1399L35.3597 7.36361C35.2257 6.88213 34.9324 6.64062 34.479 6.64062H31.4759C31.3421 6.64062 31.2221 6.70856 31.116 6.84416C31.0089 6.97947 30.9558 7.12294 30.9558 7.27303C30.9558 7.33379 31.2161 8.22178 31.7364 9.9384C32.2567 11.6554 32.8172 13.5076 33.4178 15.4954C34.0184 17.4828 34.3318 18.5375 34.3586 18.6572C32.1699 22.0305 31.0759 23.8376 31.0759 24.0781C31.0759 24.47 31.2491 24.6655 31.5963 24.6655H34.6791C34.9725 24.6655 35.2126 24.5153 35.3997 24.214L45.6089 7.58924C45.662 7.52945 45.6886 7.42451 45.6886 7.27303Z" fill="#003087"/>
<path d="M74.3954 6.64042H71.3525C70.9786 6.64042 70.7523 7.13751 70.6723 8.13142C69.9776 6.92722 68.7106 6.32422 66.8686 6.32422C64.9469 6.32422 63.3118 7.13751 61.9643 8.76382C60.6163 10.3901 59.9426 12.303 59.9426 14.5012C59.9426 16.2784 60.4029 17.6938 61.3236 18.7474C62.2444 19.8022 63.4788 20.3286 65.0273 20.3286C65.8011 20.3286 66.5884 20.1476 67.3891 19.7865C68.1899 19.4251 68.8165 18.9435 69.271 18.3409C69.271 18.3712 69.2439 18.5065 69.1909 18.7473C69.137 18.9887 69.1107 19.1697 69.1107 19.2894C69.1107 19.7719 69.2838 20.0121 69.6313 20.0121H72.394C72.9003 20.0121 73.1944 19.7266 73.2743 19.154L74.9159 7.36327C74.9422 7.18253 74.9022 7.01711 74.7958 6.86632C74.6887 6.71595 74.5555 6.64042 74.3954 6.64042ZM69.1708 15.5401C68.4902 16.2931 67.6696 16.6693 66.7087 16.6693C65.9343 16.6693 65.3077 16.4288 64.827 15.9466C64.3464 15.4656 64.1062 14.8029 64.1062 13.959C64.1062 12.8453 64.4398 11.9035 65.1072 11.1356C65.7738 10.3676 66.6019 9.98363 67.5895 9.98363C68.3361 9.98363 68.9568 10.2322 69.451 10.7288C69.9444 11.2259 70.1919 11.9112 70.1919 12.7847C70.1918 13.8688 69.8513 14.7876 69.1708 15.5401Z" fill="#009CDE"/>
<path d="M28.9133 6.64042H25.8705C25.4963 6.64042 25.2699 7.13751 25.1898 8.13142C24.4691 6.92722 23.2012 6.32422 21.3863 6.32422C19.4646 6.32422 17.8296 7.13751 16.4819 8.76382C15.1339 10.3901 14.4602 12.303 14.4602 14.5012C14.4602 16.2784 14.9207 17.6938 15.8415 18.7474C16.7624 19.8022 17.9965 20.3286 19.5448 20.3286C20.2917 20.3286 21.0662 20.1476 21.8668 19.7865C22.6674 19.4251 23.3081 18.9435 23.7885 18.3409C23.6814 18.7023 23.6283 19.0186 23.6283 19.2894C23.6283 19.7719 23.8017 20.0121 24.1487 20.0121H26.9112C27.4179 20.0121 27.7118 19.7266 27.792 19.154L29.4334 7.36327C29.4597 7.18253 29.4198 7.01711 29.3133 6.86632C29.2065 6.71595 29.0731 6.64042 28.9133 6.64042ZM23.6885 15.5625C23.0078 16.3012 22.1733 16.6693 21.1864 16.6693C20.4119 16.6693 19.7913 16.4288 19.3246 15.9466C18.8573 15.4656 18.6239 14.8029 18.6239 13.959C18.6239 12.8453 18.9574 11.9035 19.6249 11.1356C20.2917 10.3676 21.1192 9.98363 22.1071 9.98363C22.8541 9.98363 23.4746 10.2322 23.9689 10.7288C24.4623 11.2259 24.7095 11.9112 24.7095 12.7847C24.7095 13.899 24.3691 14.8254 23.6885 15.5625Z" fill="#003087"/>
<path d="M59.3604 1.19688C58.3327 0.399604 56.9917 0 55.3369 0H48.9712C48.4371 0 48.1434 0.28624 48.0904 0.858169L45.4882 19.2895C45.4611 19.4706 45.5011 19.6361 45.6082 19.7866C45.7142 19.9374 45.8483 20.0124 46.0085 20.0124H49.2912C49.6115 20.0124 49.8249 19.8169 49.9318 19.4253L50.6526 14.1853C50.679 13.9445 50.7725 13.7487 50.9328 13.5979C51.093 13.4474 51.293 13.3489 51.5334 13.3038C51.7735 13.259 52.0001 13.2365 52.2141 13.2365C52.4274 13.2365 52.6808 13.2517 52.9745 13.2817C53.2681 13.3118 53.4554 13.3264 53.535 13.3264C55.8305 13.3264 57.6318 12.5967 58.9399 11.1356C60.2477 9.67515 60.9016 7.65007 60.9016 5.05954C60.9017 3.28286 60.3877 1.9954 59.3604 1.19688ZM55.2567 8.62837C54.6695 9.08003 53.7886 9.30579 52.6145 9.30579L51.3333 9.35094L52.014 4.51716C52.0669 4.18618 52.2403 4.02049 52.5343 4.02049H53.2547C53.8418 4.02049 54.3088 4.05059 54.6564 4.11065C55.0028 4.17127 55.3369 4.35906 55.6571 4.67526C55.9776 4.99147 56.1376 5.451 56.1376 6.05317C56.1376 7.31826 55.8436 8.17629 55.2567 8.62837Z" fill="#009CDE"/>
</svg>
